<?xml version="1.0" encoding="UTF-8"?><svg id="Layer_1" xmlns="http://www.w3.org/2000/svg" viewBox="0 0 262.87 289.25"><defs><style>.cls-1{fill:#231f20;}</style></defs><path class="cls-1" d="M124.53,138.57c8.78,27.42,10.01,69.54,10.01,69.54,0,23.96,5.48,54.67,14.72,76.93l1.68,4.21h-74.39l1.68-4.21c8.83-22.25,14.72-52.96,14.72-76.93,0,0,2.46-30.15-4.61-55.81-8.86-32.1-40.37-82.53-40.37-82.53C37.42,50.46,20.61,25.64,6.74,7.98L0,0h81.17c-1.68,22.29,4.21,50.46,14.72,69.77,0,0,22.93,50.98,28.64,68.8Z"/><path class="cls-1" d="M246.03,220.17c-.7,22.76,6.08,49.02,16.84,68.95h-74.43c61.13-146.56-59.53-118.95-67.04-178.97-3.59-28.69,9.58-48.05,26.42-48.29,22.96-.32,33.45,18.36,21.03,32.52-5.12,5.84-9.16,9.2-11.01,14.33-2.65,7.33,4.14,14.72,14.09,11.7,39.98-12.12,16.51-89.08-.47-120.41h74.43c-29.85,50.32,1.94,108.64-62.48,133.46-32.77,10.46-47.11-15.54-22.72-41.32,14.98-15.83-24.35-30.35-30.64,2.53-12.95,67.68,116.18,41.75,115.97,125.5Z"/></svg>